<?xml version="1.0" encoding="UTF-8" standalone="no"?>
<svg
   xmlns:dc="http://purl.org/dc/elements/1.1/"
   xmlns:cc="http://creativecommons.org/ns#"
   xmlns:rdf="http://www.w3.org/1999/02/22-rdf-syntax-ns#"
   xmlns:svg="http://www.w3.org/2000/svg"
   xmlns="http://www.w3.org/2000/svg"
   xmlns:sodipodi="http://sodipodi.sourceforge.net/DTD/sodipodi-0.dtd"
   xmlns:inkscape="http://www.inkscape.org/namespaces/inkscape"
   style="height: 512px; width: 512px;"
   viewBox="0 0 512 512"
   id="svg2"
   version="1.1"
   inkscape:version="0.91 r13725"
   sodipodi:docname="nosave.svg">
  <metadata
     id="metadata12">
    <rdf:RDF>
      <cc:Work
         rdf:about="">
        <dc:format>image/svg+xml</dc:format>
        <dc:type
           rdf:resource="http://purl.org/dc/dcmitype/StillImage" />
        <dc:title></dc:title>
      </cc:Work>
    </rdf:RDF>
  </metadata>
  <defs
     id="defs10" />
  <sodipodi:namedview
     pagecolor="#ffffff"
     bordercolor="#666666"
     borderopacity="1"
     objecttolerance="10"
     gridtolerance="10"
     guidetolerance="10"
     inkscape:pageopacity="0"
     inkscape:pageshadow="2"
     inkscape:window-width="1234"
     inkscape:window-height="689"
     id="namedview8"
     showgrid="false"
     inkscape:zoom="0.4609375"
     inkscape:cx="256"
     inkscape:cy="256"
     inkscape:window-x="135"
     inkscape:window-y="43"
     inkscape:window-maximized="0"
     inkscape:current-layer="svg2" />
  <path
     style="fill:#000000;fill-opacity:1"
     inkscape:connector-curvature="0"
     id="path6"
     d="m 64,48 c -8.726,0 -16,7.274 -16,16 l 0,384 c 0,8.726 7.274,16 16,16 l 215,0 0,-16 -215,0 0,-384 63.375,0 0,97.53 c 0,3.924 3.443,7.095 7.72,7.095 l 169.81,0 c 4.277,0 7.72,-3.17 7.72,-7.094 l 0,-97.531 69.22,0 c 0.428,0.318 0.8,0.548 1.467,1.094 2.05,1.675 4.962,4.264 8.375,7.406 6.827,6.283 15.65,14.837 24.313,23.5 8.663,8.663 17.217,17.486 23.5,24.313 3.142,3.413 5.73,6.324 7.406,8.374 0.546,0.668 0.776,1.04 1.094,1.47 l 0,200.093 16,16 0,-218.25 c 0,-2.68 -0.657,-3.402 -1.03,-4.156 -0.375,-0.754 -0.725,-1.294 -1.095,-1.844 -0.74,-1.1 -1.575,-2.19 -2.594,-3.438 -2.036,-2.492 -4.768,-5.55 -8.03,-9.093 -6.524,-7.09 -15.155,-16 -23.938,-24.782 -8.782,-8.783 -17.692,-17.414 -24.78,-23.938 -3.545,-3.262 -6.6,-5.994 -9.094,-8.03 -1.247,-1.02 -2.337,-1.855 -3.438,-2.595 -0.55,-0.37 -1.09,-0.72 -1.844,-1.094 C 387.403,48.657 386.68,48 384.001,48 L 64,48 Z m 87.72,16 48.56,0 c 4.277,0 7.72,4.425 7.72,9.938 l 0,70.124 c 0,5.513 -3.443,9.938 -7.72,9.938 l -48.56,0 c -4.277,0 -7.72,-4.425 -7.72,-9.938 l 0,-70.124 c 0,-5.512 3.443,-9.937 7.72,-9.937 z M 114,212 c -4.432,0 -8,3.568 -8,8 l 0,184 c 0,4.432 3.568,8 8,8 l 165,0 0,-28 -76.72,0 15.345,-15.375 128,-128 6.375,-6.345 6.375,6.345 L 406,288.25 406,220 c 0,-4.432 -3.568,-8 -8,-8 l -284,0 z M 352,259.75 245.75,366 l 51.25,0 0,128 110,0 0,-128 51.25,0 L 352,259.75 Z m 96,124.25 0,64 -23,0 0,16 23,0 c 8.726,0 16,-7.274 16,-16 l 0,-64 -16,0 z" />
  <rect
     style="fill:#ff0000;fill-opacity:1;stroke:none;stroke-width:4;stroke-miterlimit:4;stroke-dasharray:none;stroke-opacity:1"
     id="rect4235"
     width="39.050846"
     height="577.08478"
     x="-17.991369"
     y="75.030365"
     transform="matrix(0.70710678,-0.70710678,0.70710678,0.70710678,0,0)" />
  <rect
     transform="matrix(-0.70710678,-0.70710678,-0.70710678,0.70710678,0,0)"
     y="-290.07645"
     x="-383.09818"
     height="577.08478"
     width="39.050846"
     id="rect4237"
     style="fill:#ff0000;fill-opacity:1;stroke:none;stroke-width:4;stroke-miterlimit:4;stroke-dasharray:none;stroke-opacity:1" />
</svg>
